<?xml version="1.0" encoding="UTF-8"?>
<svg xmlns="http://www.w3.org/2000/svg" xmlns:xlink="http://www.w3.org/1999/xlink" viewBox="0 0 2150.61 344.22">
  <defs>
    <style>
      .cls-1 {
        fill: url(#linear-gradient);
      }

      .cls-2 {
        fill: url(#linear-gradient-15);
        mix-blend-mode: multiply;
        opacity: .5;
      }

      .cls-3 {
        fill: url(#linear-gradient-8);
      }

      .cls-4 {
        fill: url(#linear-gradient-9);
      }

      .cls-5 {
        fill: url(#linear-gradient-3);
      }

      .cls-6 {
        fill: url(#linear-gradient-4);
      }

      .cls-7 {
        fill: url(#linear-gradient-2);
      }

      .cls-8 {
        fill: url(#linear-gradient-6);
      }

      .cls-9 {
        fill: url(#linear-gradient-7);
      }

      .cls-10 {
        fill: url(#linear-gradient-5);
      }

      .cls-11 {
        fill: url(#linear-gradient-14);
      }

      .cls-12 {
        fill: url(#linear-gradient-16);
      }

      .cls-13 {
        fill: url(#linear-gradient-13);
      }

      .cls-14 {
        fill: url(#linear-gradient-12);
      }

      .cls-15 {
        fill: url(#linear-gradient-10);
      }

      .cls-16 {
        fill: url(#linear-gradient-11);
      }

      .cls-17 {
        isolation: isolate;
      }
    </style>
    <linearGradient id="linear-gradient" x1="618.38" y1="212.8" x2="768.6" y2="212.8" gradientUnits="userSpaceOnUse">
      <stop offset="0" stop-color="#5facfa"/>
      <stop offset=".14" stop-color="#47a3f7"/>
      <stop offset=".34" stop-color="#2d98f4"/>
      <stop offset=".55" stop-color="#1a91f1"/>
      <stop offset=".77" stop-color="#0f8df0"/>
      <stop offset="1" stop-color="#0c8cf0"/>
    </linearGradient>
    <linearGradient id="linear-gradient-2" x1="798.21" y1="212.68" x2="929" y2="212.68" xlink:href="#linear-gradient"/>
    <linearGradient id="linear-gradient-3" x1="946.77" x2="1115.46" xlink:href="#linear-gradient"/>
    <linearGradient id="linear-gradient-4" x1="1133.23" y1="212.68" x2="1362.11" y2="212.68" xlink:href="#linear-gradient"/>
    <linearGradient id="linear-gradient-5" x1="1390.54" y1="212.68" x2="1530.33" y2="212.68" xlink:href="#linear-gradient"/>
    <linearGradient id="linear-gradient-6" x1="1564.68" y1="212.68" x2="1738.83" y2="212.68" xlink:href="#linear-gradient"/>
    <linearGradient id="linear-gradient-7" x1="1779.1" y1="212.68" x2="1876.96" y2="212.68" xlink:href="#linear-gradient"/>
    <linearGradient id="linear-gradient-8" x1="1912.5" y1="212.68" x2="2010.35" y2="212.68" xlink:href="#linear-gradient"/>
    <linearGradient id="linear-gradient-9" x1="2038.78" y1="212.68" x2="2150.61" y2="212.68" xlink:href="#linear-gradient"/>
    <linearGradient id="linear-gradient-10" x1="155.33" y1="229.51" x2="388.54" y2="229.51" xlink:href="#linear-gradient"/>
    <linearGradient id="linear-gradient-11" x1="0" y1="230.4" x2="139.58" y2="230.4" xlink:href="#linear-gradient"/>
    <linearGradient id="linear-gradient-12" x1="42.33" y1="58.97" x2="160.27" y2="58.97" xlink:href="#linear-gradient"/>
    <linearGradient id="linear-gradient-13" x1="212.96" y1="58.97" x2="330.9" y2="58.97" xlink:href="#linear-gradient"/>
    <linearGradient id="linear-gradient-14" x1="385.21" y1="58.97" x2="503.15" y2="58.97" xlink:href="#linear-gradient"/>
    <linearGradient id="linear-gradient-15" x1="313.65" y1="179.62" x2="327.35" y2="186.78" xlink:href="#linear-gradient"/>
    <linearGradient id="linear-gradient-16" x1="327.57" y1="229.51" x2="560.79" y2="229.51" xlink:href="#linear-gradient"/>
  </defs>
  <g class="cls-17">
    <g id="Layer_2" data-name="Layer 2">
      <g id="Layer_1-2" data-name="Layer 1">
        <g>
          <g>
            <path class="cls-1" d="M742.06,250.35l26.54,17.53c-14.93,18.95-38.15,30.8-65.87,30.8-49.05,0-84.35-37.44-84.35-86.01s35.3-85.77,84.35-85.77c27.72,0,50.94,11.61,65.87,30.8l-26.54,17.53c-8.77-10.66-22.04-17.77-39.33-17.77-34.36,0-52.13,27.72-52.13,55.21s17.77,55.44,52.13,55.44c17.3,0,30.56-7.11,39.33-17.77Z"/>
            <path class="cls-7" d="M892.27,295.61l-34.12-59.71h-27.96v59.71h-31.99V129.75h57.34c37.2,0,61.84,22.75,61.84,54.26,0,20.85-11.14,36.96-29.14,45.26l40.75,66.34h-36.72Zm-62.08-87.43h25.35c16.59,0,28.91-7.58,28.91-24.17,0-14.93-10.9-24.4-28.91-24.4h-25.35v48.57Z"/>
            <path class="cls-5" d="M1115.46,212.68c0,48.57-35.3,86.01-84.35,86.01s-84.35-37.44-84.35-86.01,35.3-85.77,84.35-85.77,84.35,37.2,84.35,85.77Zm-32.22,0c0-27.48-17.77-55.21-52.13-55.21s-52.13,27.72-52.13,55.21,17.77,55.44,52.13,55.44,52.13-27.72,52.13-55.44Z"/>
            <path class="cls-6" d="M1362.11,129.75l-53.31,165.86h-28.91l-32.22-108.99-32.22,108.99h-28.91l-53.31-165.86h34.12l34.59,113.73,33.41-113.73h24.64l33.41,113.97,34.59-113.97h34.12Z"/>
            <path class="cls-10" d="M1530.33,212.68c0,48.81-32.93,82.93-88.14,82.93h-51.65V129.75h51.65c55.21,0,88.14,34.12,88.14,82.93Zm-32.22,0c0-36.96-25.83-53.07-55.92-53.07h-19.43v106.15h19.43c30.09,0,55.92-16.11,55.92-53.07Z"/>
            <path class="cls-8" d="M1738.83,129.75v165.86h-32.22v-109.94l-49.52,80.32h-10.66l-49.76-80.32v109.94h-31.99V129.75h34.12l52.84,85.3,52.84-85.3h34.36Z"/>
            <path class="cls-9" d="M1876.96,265.75v29.85h-97.85V129.75h95.72v29.85h-63.74v37.44h58.29v29.85h-58.29v38.86h65.87Z"/>
            <path class="cls-3" d="M2010.35,265.75v29.85h-97.85V129.75h95.72v29.85h-63.74v37.44h58.29v29.85h-58.29v38.86h65.87Z"/>
            <path class="cls-4" d="M2150.61,159.6h-39.81v136h-32.22V159.6h-39.81v-29.85h111.83v29.85Z"/>
          </g>
          <g>
            <path class="cls-15" d="M388.54,214.08v130.14h-60.98V214.13c0-4.97-.8-9.67-2.29-14.15-1.5-4.48-3.71-8.75-6.59-12.72-2.28-3.13-4.98-6.07-8.05-8.7-4.67-4.07-10.18-7.45-16.34-9.86-3.4-1.34-6.96-2.37-10.7-3.1-3.73-.7-7.63-1.08-11.67-1.08-9.05,0-17.44,1.91-24.87,5.23-7.4,3.32-13.82,8.08-18.77,13.66-3.31,3.74-5.99,7.84-7.95,12.16-2.62,5.78-4.03,11.93-4.03,18.55v130.08h-60.97V214.13c-.02-11.62,1.91-22.92,5.44-33.49,3.53-10.57,8.68-20.39,15.08-29.21,11.44-15.73,26.87-28.3,44.78-36.62,13.52,12.43,31.54,20.03,51.3,20.03s37.79-7.59,51.31-20.03c7.23,3.37,14.06,7.42,20.37,12.1,5.18,3.82,10.01,8.05,14.45,12.66,1.08,1.11,2.11,2.24,3.14,3.38,1.52,1.72,2.99,3.48,4.4,5.29,5.29,6.76,9.84,14.15,13.44,22.09,6.09,13.37,9.51,28.27,9.51,43.75Z"/>
            <path class="cls-16" d="M139.58,338.13c-11.26,3.95-23.41,6.09-35.99,6.09-13.97,0-27.41-2.64-39.68-7.47-12.28-4.83-23.41-11.83-32.84-20.6l-.02-.02c-9.43-8.77-17.18-19.33-22.6-31.24C3.04,273,0,259.74,0,245.97v-44.16C0,191.49,1.7,181.43,4.84,172.05c3.14-9.4,7.72-18.13,13.41-25.96,8.85-12.18,20.39-22.23,33.75-29.5,13.27,11.37,30.5,18.25,49.3,18.25,11.4,0,22.22-2.53,31.94-7.06l-11.95,33.84c-5.43-1.91-11.36-2.98-17.7-2.99-7.92,0-15.24,1.68-21.72,4.57-6.46,2.89-12.05,7.03-16.38,11.9-2.88,3.25-5.2,6.82-6.92,10.58-2.27,5.03-3.5,10.37-3.5,16.12v44.16c0,5.75,1.23,11.09,3.5,16.11,2.28,5.01,5.65,9.69,9.97,13.71,4.33,4.03,9.59,7.37,15.51,9.7,5.92,2.33,12.49,3.64,19.53,3.64,6.34,0,12.3-1.07,17.75-2.98l18.24,51.98Z"/>
            <circle class="cls-14" cx="101.3" cy="58.97" r="58.97"/>
            <circle class="cls-13" cx="271.93" cy="58.97" r="58.97"/>
            <circle class="cls-11" cx="444.18" cy="58.97" r="58.97"/>
            <path class="cls-2" d="M385.21,196.4l-46.88,64.48-10.76-21.24v-25.52c0-4.97-.8-9.67-2.29-14.15-1.5-4.48-3.71-8.75-6.59-12.71-2.28-3.13-4.98-6.07-8.05-8.71l32.98-51.66c6.41,4.73,12.31,10.11,17.58,16.04,1.52,1.72,2.99,3.48,4.4,5.28l19.61,48.17Z"/>
            <path class="cls-12" d="M560.79,214.13v130.08h-60.98V214.13c0-4.97-.8-9.66-2.3-14.15-1.5-4.48-3.7-8.75-6.59-12.71-5.74-7.92-14.21-14.57-24.38-18.57-3.4-1.34-6.98-2.38-10.71-3.09-3.73-.71-7.62-1.09-11.66-1.09-9.06,0-17.45,1.91-24.87,5.23-7.42,3.32-13.82,8.07-18.78,13.66-3.31,3.73-5.98,7.83-7.95,12.16-2.61,5.76-4.01,11.9-4.03,18.5v130.14h-60.98V214.13c0-11.62,1.91-22.93,5.45-33.49,3.53-10.57,8.68-20.39,15.08-29.21,3.04-4.19,6.37-8.15,9.96-11.86,9.87-10.25,21.66-18.65,34.8-24.76,13.52,12.43,31.55,20.03,51.32,20.03s37.8-7.6,51.32-20.03c14.55,6.77,27.47,16.34,37.95,28.14,7.22,8.14,13.27,17.34,17.84,27.39,6.09,13.38,9.51,28.29,9.51,43.79Z"/>
          </g>
        </g>
      </g>
    </g>
  </g>
</svg>